<svg width="41" height="39" viewBox="0 0 41 39" fill="none" xmlns="http://www.w3.org/2000/svg">
<path d="M11.2556 15.7677C11.2556 17.8433 9.47525 19.5249 7.27635 19.5249C5.58061 19.5249 4.13071 18.5212 3.56185 17.1079C3.10541 17.1059 2.73633 16.7584 2.73633 16.3264C2.73633 15.979 2.97674 15.6864 3.30586 15.5835C3.40474 13.5925 5.14517 12.0078 7.27703 12.0078C9.40889 12.0078 11.2563 13.6914 11.2563 15.767L11.2556 15.7677Z" fill="#FFC501"/>
<g style="mix-blend-mode:multiply">
<path d="M10.9884 13.6478C7.49133 15.5419 3.98811 13.0952 2.92354 10.3389C2.1759 8.40209 2.85311 6.45104 4.00369 5.07495C4.21024 4.82844 4.28135 4.49864 4.22582 4.18239C4.13575 3.67177 4.22988 3.0765 4.99174 2.61938C5.55992 2.27807 6.19244 2.45211 6.61163 2.71216C6.89877 2.89027 7.24482 2.94377 7.57733 2.88485C9.89475 2.4731 12.4492 3.60066 13.4013 6.06639C14.4652 8.82196 14.2973 11.8565 10.9891 13.6484L10.9884 13.6478Z" fill="#FFC501"/>
</g>
<path d="M10.8439 12.9173C7.3468 14.8115 3.84358 12.3647 2.77901 9.60844C2.03137 7.67162 2.70858 5.72057 3.85916 4.34448C4.06571 4.09798 4.13681 3.76817 4.08128 3.45192C3.99121 2.9413 4.08535 2.34603 4.84721 1.88891C5.41539 1.5476 6.0479 1.72164 6.4671 1.98169C6.75424 2.1598 7.10029 2.2133 7.4328 2.15438C9.75022 1.74264 12.3047 2.87019 13.2568 5.33592C14.3207 8.09149 14.1528 11.1261 10.8446 12.918L10.8439 12.9173Z" fill="#FFC501"/>
<g style="mix-blend-mode:multiply">
<path d="M22.6277 5.80374C22.6277 8.92771 19.4285 11.5011 16.3567 11.5011C13.2849 11.5011 11.3887 9.11597 11.3887 5.992C11.3887 2.86803 13.8788 0.335938 16.9506 0.335938C20.0224 0.335938 22.6277 2.67976 22.6277 5.80374Z" fill="#FF884D"/>
</g>
<path d="M23.1589 5.4678C23.1589 8.59177 19.9598 11.1652 16.8879 11.1652C13.8161 11.1652 11.9199 8.78004 11.9199 5.65606C11.9199 2.53209 14.41 0 17.4819 0C20.5537 0 23.1589 2.34383 23.1589 5.4678Z" fill="#FF884D"/>
<g style="mix-blend-mode:multiply">
<path d="M33.8237 6.15735C33.8237 9.49397 30.8087 12.5374 26.5186 12.2434C22.9497 11.999 20.7305 9.69578 20.7305 6.35848C20.7305 3.02119 23.6316 0.316406 27.21 0.316406C30.7884 0.316406 33.8237 2.82005 33.8237 6.15735Z" fill="#02C27F"/>
<path d="M27.4208 5.57491C27.3849 5.51532 27.3856 5.44082 27.4242 5.38258C27.5718 5.15843 28.0283 4.56384 28.8903 4.2381C29.7138 3.92658 30.4669 3.91033 30.7798 3.91981C30.8685 3.92252 30.9403 3.9855 30.9504 4.06744C30.9619 4.16022 30.8915 4.24352 30.7926 4.25367C30.4263 4.2916 29.5736 4.40943 28.9614 4.72975C28.3154 5.06768 27.9497 5.51261 27.8319 5.67175C27.796 5.71983 27.7404 5.75234 27.6775 5.75437C27.5982 5.75708 27.4987 5.70494 27.4208 5.57491Z" fill="#0C513F"/>
</g>
<path d="M34.5053 6.41826C34.5053 9.99393 31.4904 13.2547 27.2002 12.9398C23.6313 12.6777 21.4121 10.21 21.4121 6.63429C21.4121 3.05862 24.3133 0.160156 27.8917 0.160156C31.47 0.160156 34.5053 2.84327 34.5053 6.41894V6.41826Z" fill="#02C27F"/>
<path opacity="0.7" d="M28.5187 5.80915C28.7246 5.9087 28.7273 6.21751 28.5322 6.33805C28.3338 6.46063 28.0799 6.48027 27.7941 6.18433C27.4419 5.81931 27.5875 5.53962 27.8049 5.3561C27.9688 5.21794 28.2302 5.29041 28.2885 5.49696C28.3243 5.62427 28.3921 5.7482 28.5194 5.80983L28.5187 5.80915Z" fill="#0C513F"/>
<path d="M28.1024 5.79509C28.0665 5.73143 28.0672 5.65152 28.1058 5.58921C28.2535 5.34948 28.7099 4.71155 29.572 4.36278C30.3955 4.0296 31.1485 4.01131 31.4614 4.02147C31.5501 4.02418 31.6219 4.0919 31.6321 4.17994C31.6436 4.27881 31.5731 4.3682 31.4743 4.37904C31.1079 4.41967 30.2553 4.54563 29.6431 4.88965C28.997 5.25196 28.6313 5.72872 28.5135 5.89938C28.4776 5.95084 28.4221 5.98538 28.3591 5.98809C28.2799 5.9908 28.1803 5.93527 28.1024 5.79576V5.79509Z" fill="#0C513F"/>
<g style="mix-blend-mode:multiply">
<path d="M2.3679 24.9461C2.3679 24.9461 2.44781 19.974 6.31401 19.8968C10.1802 19.8203 15.3927 21.6427 15.5004 25.3897L15.1171 28.2712C15.1171 28.2712 14.4385 31.4088 11.1195 32.0331C7.80049 32.6582 1.29114 32.4131 1.81936 26.5877L2.36858 24.9454L2.3679 24.9461Z" fill="#02C27F"/>
</g>
<path d="M1.57884 24.1493C1.57884 24.1493 1.65875 19.1772 5.52495 19.1C9.39114 19.0234 14.6036 20.8458 14.7113 24.5928L14.328 27.4744C14.328 27.4744 13.6494 30.6119 10.3304 31.2363C7.01143 31.8613 0.502075 31.6162 1.0303 25.7908L1.57952 24.1486L1.57884 24.1493Z" fill="#02C27F"/>
<path d="M3.13101 22.3477C3.13101 22.3477 2.32919 23.8863 2.54455 25.0931" stroke="#0C513F" stroke-width="4.24948" stroke-miterlimit="10"/>
<path d="M2.78438 23.2447L1.8688 21.2178C1.79972 21.0654 1.6101 21.0112 1.47127 21.1047C1.36292 21.1778 1.32161 21.318 1.37443 21.4379L2.51418 24.0268L2.78371 23.2447H2.78438Z" fill="#0C513F"/>
<g style="mix-blend-mode:multiply">
<path d="M24.8463 16.6177C24.8463 21.1293 23.034 24.3826 19.1821 24.7443C15.4073 25.0984 11.5391 20.83 11.5391 16.3184C11.5391 11.8068 14.191 8.44922 17.982 8.44922C21.7731 8.44922 24.8463 12.1068 24.8463 16.6177Z" fill="#8A573C"/>
</g>
<path d="M24.6275 17.2584C24.6275 21.7699 22.8153 25.0233 18.9633 25.3849C15.1885 25.7391 11.3203 21.4706 11.3203 16.959C11.3203 12.4475 13.9723 9.08984 17.7633 9.08984C21.5543 9.08984 24.6275 12.7475 24.6275 17.2584Z" fill="#8A573C"/>
<path d="M17.2659 10.8311C17.6694 10.8311 17.9966 10.6101 17.9966 10.3374C17.9966 10.0648 17.6694 9.84375 17.2659 9.84375C16.8623 9.84375 16.5352 10.0648 16.5352 10.3374C16.5352 10.6101 16.8623 10.8311 17.2659 10.8311Z" fill="#231F20"/>
<path d="M17.1413 13.6359C17.385 13.5137 17.436 13.1222 17.2551 12.7614C17.0742 12.4007 16.73 12.2073 16.4862 12.3295C16.2425 12.4517 16.1916 12.8432 16.3724 13.204C16.5533 13.5647 16.8976 13.7581 17.1413 13.6359Z" fill="#231F20"/>
<path d="M15.0539 11.5371C15.2146 11.2274 15.1409 10.8705 14.8893 10.7399C14.6377 10.6093 14.3034 10.7545 14.1426 11.0642C13.9819 11.3739 14.0555 11.7309 14.3072 11.8615C14.5588 11.9921 14.8931 11.8469 15.0539 11.5371Z" fill="#231F20"/>
<path d="M37.4572 7.96526C37.4572 7.96526 35.834 6.54718 34.9333 7.94224C34.1897 9.09349 34.2391 10.2183 34.2791 10.5759C34.2872 10.649 34.3211 10.7161 34.3753 10.7662L35.0558 11.3919C35.1331 11.4631 35.2373 11.4996 35.3416 11.4868C35.6897 11.4448 36.5511 11.2416 37.7938 10.2786C39.3263 9.09079 37.4579 7.96526 37.4579 7.96526H37.4572Z" fill="#ED5E3B"/>
<path d="M36.611 7.518C36.611 7.518 36.1458 7.28301 36.1688 6.64778C36.1688 6.64778 36.6652 6.55094 37.0993 7.33109C37.0993 7.33109 37.1345 6.58954 37.2564 6.61799C37.2855 6.62476 37.6851 7.03582 37.7277 7.83967C37.7277 7.83967 38.2383 7.6785 38.5776 8.17286C38.8763 8.60763 38.9027 8.7126 38.9027 8.7126C38.9027 8.7126 38.2722 8.82163 37.8639 8.51756C37.6255 8.34013 37.4189 8.34081 37.2882 8.37264C37.1873 8.39702 37.081 8.37399 37.0085 8.30018L36.6347 7.92229C36.5562 7.84306 36.5318 7.72522 36.5724 7.62093L36.6124 7.518H36.611Z" fill="#0C513F"/>
<path d="M35.7765 7.97344C35.8053 7.97306 35.8279 7.9112 35.8268 7.83528C35.8258 7.75936 35.8016 7.69813 35.7728 7.69852C35.744 7.6989 35.7215 7.76076 35.7226 7.83668C35.7236 7.9126 35.7477 7.97383 35.7765 7.97344Z" fill="#FFEDB3"/>
<path d="M36.5168 8.41094C36.5456 8.41055 36.5681 8.3487 36.5671 8.27278C36.566 8.19686 36.5419 8.13563 36.5131 8.13602C36.4843 8.1364 36.4618 8.19826 36.4628 8.27418C36.4638 8.3501 36.488 8.41133 36.5168 8.41094Z" fill="#FFEDB3"/>
<path d="M36.9504 9.16094C36.9792 9.16056 37.0017 9.0987 37.0007 9.02278C36.9996 8.94686 36.9755 8.88563 36.9467 8.88602C36.9179 8.8864 36.8954 8.94826 36.8964 9.02418C36.8974 9.1001 36.9216 9.16133 36.9504 9.16094Z" fill="#FFEDB3"/>
<path d="M37.9816 9.22344C38.0104 9.22305 38.0329 9.1612 38.0319 9.08528C38.0309 9.00936 38.0067 8.94813 37.9779 8.94852C37.9491 8.94891 37.9266 9.01076 37.9276 9.08668C37.9286 9.1626 37.9528 9.22383 37.9816 9.22344Z" fill="#FFEDB3"/>
<path d="M37.5715 9.68047C37.6003 9.68008 37.6228 9.61823 37.6218 9.54231C37.6207 9.46639 37.5966 9.40516 37.5678 9.40555C37.539 9.40594 37.5165 9.46779 37.5175 9.54371C37.5185 9.61963 37.5427 9.68086 37.5715 9.68047Z" fill="#FFEDB3"/>
<path d="M37.6652 8.78985C37.694 8.78946 37.7165 8.7276 37.7155 8.65169C37.7145 8.57577 37.6903 8.51454 37.6615 8.51492C37.6327 8.51531 37.6102 8.57717 37.6112 8.65309C37.6122 8.72901 37.6364 8.79024 37.6652 8.78985Z" fill="#FFEDB3"/>
<path d="M36.0402 8.79766C36.069 8.79727 36.0915 8.73542 36.0905 8.6595C36.0895 8.58358 36.0653 8.52235 36.0365 8.52274C36.0077 8.52312 35.9852 8.58498 35.9862 8.6609C35.9872 8.73682 36.0114 8.79805 36.0402 8.79766Z" fill="#FFEDB3"/>
<path d="M36.3078 9.68438C36.3366 9.68399 36.3591 9.62213 36.3581 9.54622C36.3571 9.4703 36.3329 9.40907 36.3041 9.40946C36.2753 9.40984 36.2528 9.4717 36.2538 9.54762C36.2548 9.62354 36.279 9.68477 36.3078 9.68438Z" fill="#FFEDB3"/>
<path d="M36.3273 10.6375C36.3561 10.6371 36.3786 10.5753 36.3776 10.4993C36.3766 10.4234 36.3524 10.3622 36.3236 10.3626C36.2948 10.363 36.2723 10.4248 36.2733 10.5007C36.2744 10.5767 36.2985 10.6379 36.3273 10.6375Z" fill="#FFEDB3"/>
<path d="M35.9054 11.2469C35.9342 11.2465 35.9568 11.1846 35.9557 11.1087C35.9547 11.0328 35.9305 10.9716 35.9018 10.972C35.873 10.9723 35.8504 11.0342 35.8515 11.1101C35.8525 11.186 35.8766 11.2473 35.9054 11.2469Z" fill="#FFEDB3"/>
<path d="M36.8898 10.2195C36.9186 10.2191 36.9411 10.1573 36.9401 10.0814C36.9391 10.0055 36.9149 9.94422 36.8861 9.94461C36.8573 9.945 36.8348 10.0069 36.8358 10.0828C36.8369 10.1587 36.861 10.2199 36.8898 10.2195Z" fill="#FFEDB3"/>
<path d="M37.4738 10.3641C37.5026 10.3637 37.5251 10.3018 37.5241 10.2259C37.5231 10.15 37.4989 10.0888 37.4701 10.0891C37.4413 10.0895 37.4188 10.1514 37.4198 10.2273C37.4208 10.3032 37.445 10.3645 37.4738 10.3641Z" fill="#FFEDB3"/>
<path d="M36.257 7.62969C36.2858 7.6293 36.3083 7.56745 36.3073 7.49153C36.3063 7.41561 36.2821 7.35438 36.2533 7.35477C36.2245 7.35516 36.202 7.41701 36.203 7.49293C36.204 7.56885 36.2282 7.63008 36.257 7.62969Z" fill="#FFEDB3"/>
<path d="M36.9347 10.7781C36.9635 10.7777 36.9861 10.7159 36.985 10.64C36.984 10.564 36.9598 10.5028 36.931 10.5032C36.9022 10.5036 36.8797 10.5654 36.8808 10.6414C36.8818 10.7173 36.9059 10.7785 36.9347 10.7781Z" fill="#FFEDB3"/>
<path d="M35.2765 10.5438C35.3053 10.5434 35.3279 10.4815 35.3268 10.4056C35.3258 10.3297 35.3016 10.2684 35.2728 10.2688C35.244 10.2692 35.2215 10.3311 35.2226 10.407C35.2236 10.4829 35.2477 10.5441 35.2765 10.5438Z" fill="#FFEDB3"/>
<path d="M35.7824 10.0398C35.8112 10.0395 35.8337 9.9776 35.8327 9.90168C35.8317 9.82577 35.8075 9.76454 35.7787 9.76492C35.7499 9.76531 35.7274 9.82717 35.7284 9.90309C35.7294 9.979 35.7536 10.0402 35.7824 10.0398Z" fill="#FFEDB3"/>
<path d="M35.1965 11.2273C35.2253 11.227 35.2478 11.1651 35.2468 11.0892C35.2457 11.0133 35.2216 10.952 35.1928 10.9524C35.164 10.9528 35.1415 11.0147 35.1425 11.0906C35.1435 11.1665 35.1677 11.2277 35.1965 11.2273Z" fill="#FFEDB3"/>
<path d="M35.3293 8.33672C35.3581 8.33633 35.3806 8.27448 35.3796 8.19856C35.3785 8.12264 35.3544 8.06141 35.3256 8.0618C35.2968 8.06219 35.2743 8.12404 35.2753 8.19996C35.2763 8.27588 35.3005 8.33711 35.3293 8.33672Z" fill="#FFEDB3"/>
<path d="M35.4191 9.2586C35.4479 9.25821 35.4704 9.19635 35.4694 9.12043C35.4684 9.04452 35.4442 8.98329 35.4154 8.98367C35.3866 8.98406 35.3641 9.04592 35.3651 9.12184C35.3661 9.19775 35.3903 9.25898 35.4191 9.2586Z" fill="#FFEDB3"/>
<path d="M34.9699 9.64141C34.9987 9.64102 35.0212 9.57917 35.0202 9.50325C35.0192 9.42733 34.995 9.3661 34.9662 9.36649C34.9374 9.36687 34.9149 9.42873 34.9159 9.50465C34.9169 9.58057 34.9411 9.6418 34.9699 9.64141Z" fill="#FFEDB3"/>
<path d="M34.4894 10.0125C34.5182 10.0121 34.5407 9.95026 34.5397 9.87434C34.5387 9.79842 34.5145 9.73719 34.4857 9.73758C34.4569 9.73797 34.4344 9.79982 34.4354 9.87574C34.4365 9.95166 34.4606 10.0129 34.4894 10.0125Z" fill="#FFEDB3"/>
<path d="M34.7101 10.6727C34.7389 10.6723 34.7614 10.6104 34.7604 10.5345C34.7594 10.4586 34.7352 10.3973 34.7064 10.3977C34.6776 10.3981 34.6551 10.46 34.6561 10.5359C34.6572 10.6118 34.6813 10.673 34.7101 10.6727Z" fill="#FFEDB3"/>
<path d="M34.6672 9.08672C34.696 9.08633 34.7185 9.02448 34.7175 8.94856C34.7164 8.87264 34.6923 8.81141 34.6635 8.8118C34.6347 8.81219 34.6122 8.87404 34.6132 8.94996C34.6142 9.02588 34.6384 9.08711 34.6672 9.08672Z" fill="#FFEDB3"/>
<g style="mix-blend-mode:multiply">
<path d="M39.2949 11.1032C39.2949 11.1032 38.7788 9.01058 37.2402 9.63632C35.9704 10.153 35.3657 11.1025 35.1937 11.4181C35.1585 11.4831 35.1476 11.5569 35.1632 11.6287L35.3616 12.5314C35.384 12.6343 35.4483 12.723 35.5411 12.7732C35.8499 12.9384 36.672 13.2662 38.2431 13.1903C40.1793 13.0969 39.2949 11.1025 39.2949 11.1025V11.1032Z" fill="#ED5E3B"/>
</g>
<path d="M39.5156 11.2868C39.5156 11.2868 38.9995 9.19417 37.4609 9.81992C36.1911 10.3366 35.5864 11.2861 35.4144 11.6017C35.3792 11.6667 35.3683 11.7405 35.3839 11.8123L35.5823 12.715C35.6047 12.8179 35.669 12.9066 35.7618 12.9568C36.0706 13.122 36.8927 13.4498 38.4639 13.3739C40.4 13.2805 39.5156 11.2861 39.5156 11.2861V11.2868Z" fill="#ED5E3B"/>
<path d="M39.0768 10.4351C39.0768 10.4351 38.8303 9.97598 39.2136 9.46875C39.2136 9.46875 39.6761 9.67394 39.584 10.5624C39.584 10.5624 40.0384 9.9753 40.121 10.0688C40.1414 10.0911 40.2328 10.6573 39.8061 11.3392C39.8061 11.3392 40.3168 11.5004 40.3113 12.0997C40.3066 12.6273 40.2673 12.7282 40.2673 12.7282C40.2673 12.7282 39.6883 12.4559 39.5285 11.9724C39.435 11.6907 39.2657 11.5728 39.1404 11.5234C39.0436 11.4855 38.9705 11.4056 38.9529 11.3033L38.8635 10.7792C38.8445 10.6694 38.8926 10.5584 38.9847 10.4968L39.0768 10.4351Z" fill="#0C513F"/>
<path d="M38.2495 10.2458C38.2922 10.183 38.3076 10.119 38.2837 10.1028C38.2599 10.0866 38.206 10.1244 38.1633 10.1871C38.1206 10.2499 38.1052 10.3139 38.129 10.3301C38.1529 10.3463 38.2068 10.3086 38.2495 10.2458Z" fill="#FFEDB3"/>
<path d="M38.6069 11.031C38.6496 10.9682 38.665 10.9042 38.6412 10.888C38.6174 10.8718 38.5634 10.9095 38.5207 10.9723C38.478 11.0351 38.4627 11.0991 38.4865 11.1153C38.5103 11.1315 38.5642 11.0937 38.6069 11.031Z" fill="#FFEDB3"/>
<path d="M38.5308 11.8943C38.5735 11.8315 38.5888 11.7675 38.565 11.7513C38.5412 11.7351 38.4873 11.7728 38.4445 11.8356C38.4018 11.8983 38.3865 11.9624 38.4103 11.9786C38.4341 11.9948 38.488 11.957 38.5308 11.8943Z" fill="#FFEDB3"/>
<path d="M39.3393 12.5349C39.3821 12.4721 39.3974 12.4081 39.3736 12.3919C39.3498 12.3757 39.2959 12.4134 39.2531 12.4762C39.2104 12.539 39.1951 12.603 39.2189 12.6192C39.2427 12.6354 39.2966 12.5976 39.3393 12.5349Z" fill="#FFEDB3"/>
<path d="M38.7417 12.6755C38.7844 12.6127 38.7997 12.5487 38.7759 12.5325C38.7521 12.5163 38.6982 12.5541 38.6555 12.6168C38.6128 12.6796 38.5974 12.7436 38.6212 12.7598C38.645 12.776 38.699 12.7383 38.7417 12.6755Z" fill="#FFEDB3"/>
<path d="M39.3296 11.9997C39.3723 11.937 39.3876 11.8729 39.3638 11.8567C39.34 11.8405 39.2861 11.8783 39.2434 11.941C39.2006 12.0038 39.1853 12.0678 39.2091 12.084C39.2329 12.1002 39.2869 12.0625 39.3296 11.9997Z" fill="#FFEDB3"/>
<path d="M37.9956 11.07C38.0383 11.0073 38.0536 10.9432 38.0298 10.927C38.006 10.9108 37.9521 10.9486 37.9094 11.0114C37.8667 11.0741 37.8513 11.1381 37.8751 11.1543C37.8989 11.1705 37.9529 11.1328 37.9956 11.07Z" fill="#FFEDB3"/>
<path d="M37.7065 11.9528C37.7493 11.8901 37.7646 11.8261 37.7408 11.8099C37.717 11.7937 37.663 11.8314 37.6203 11.8942C37.5776 11.9569 37.5623 12.0209 37.5861 12.0372C37.6099 12.0534 37.6638 12.0156 37.7065 11.9528Z" fill="#FFEDB3"/>
<path d="M37.1753 12.7458C37.218 12.683 37.2333 12.619 37.2095 12.6028C37.1857 12.5866 37.1318 12.6244 37.0891 12.6871C37.0463 12.7499 37.031 12.8139 37.0548 12.8301C37.0786 12.8463 37.1326 12.8086 37.1753 12.7458Z" fill="#FFEDB3"/>
<path d="M36.478 13.0036C36.5207 12.9409 36.5361 12.8768 36.5123 12.8606C36.4885 12.8444 36.4345 12.8822 36.3918 12.9449C36.3491 13.0077 36.3338 13.0717 36.3576 13.0879C36.3814 13.1041 36.4353 13.0664 36.478 13.0036Z" fill="#FFEDB3"/>
<path d="M37.8745 12.7263C37.9172 12.6635 37.9326 12.5995 37.9087 12.5833C37.8849 12.5671 37.831 12.6048 37.7883 12.6676C37.7456 12.7304 37.7302 12.7944 37.754 12.8106C37.7779 12.8268 37.8318 12.789 37.8745 12.7263Z" fill="#FFEDB3"/>
<path d="M38.271 13.1794C38.3137 13.1166 38.329 13.0526 38.3052 13.0364C38.2814 13.0202 38.2275 13.058 38.1848 13.1207C38.1421 13.1835 38.1267 13.2475 38.1505 13.2637C38.1743 13.2799 38.2283 13.2422 38.271 13.1794Z" fill="#FFEDB3"/>
<path d="M38.8433 10.2419C38.886 10.1791 38.9013 10.1151 38.8775 10.0989C38.8537 10.0827 38.7998 10.1205 38.757 10.1832C38.7143 10.246 38.699 10.31 38.7228 10.3262C38.7466 10.3424 38.8005 10.3047 38.8433 10.2419Z" fill="#FFEDB3"/>
<path d="M37.5893 13.2107C37.6321 13.1479 37.6474 13.0839 37.6236 13.0677C37.5998 13.0515 37.5459 13.0892 37.5031 13.152C37.4604 13.2147 37.4451 13.2788 37.4689 13.295C37.4927 13.3112 37.5466 13.2734 37.5893 13.2107Z" fill="#FFEDB3"/>
<path d="M36.3647 12.0661C36.4075 12.0034 36.4228 11.9393 36.399 11.9231C36.3752 11.9069 36.3212 11.9447 36.2785 12.0074C36.2358 12.0702 36.2205 12.1342 36.2443 12.1504C36.2681 12.1666 36.322 12.1289 36.3647 12.0661Z" fill="#FFEDB3"/>
<path d="M37.0718 11.9411C37.1145 11.8784 37.1298 11.8143 37.106 11.7981C37.0822 11.7819 37.0283 11.8197 36.9856 11.8824C36.9428 11.9452 36.9275 12.0092 36.9513 12.0254C36.9751 12.0416 37.0291 12.0039 37.0718 11.9411Z" fill="#FFEDB3"/>
<path d="M35.9097 12.5778C35.9524 12.5151 35.9677 12.4511 35.9439 12.4349C35.9201 12.4187 35.8662 12.4564 35.8234 12.5192C35.7807 12.5819 35.7654 12.6459 35.7892 12.6622C35.813 12.6784 35.8669 12.6406 35.9097 12.5778Z" fill="#FFEDB3"/>
<path d="M37.6772 10.2888C37.72 10.226 37.7353 10.162 37.7115 10.1458C37.6877 10.1296 37.6337 10.1673 37.591 10.2301C37.5483 10.2929 37.533 10.3569 37.5568 10.3731C37.5806 10.3893 37.6345 10.3515 37.6772 10.2888Z" fill="#FFEDB3"/>
<path d="M37.2202 11.0935C37.2629 11.0307 37.2783 10.9667 37.2544 10.9505C37.2306 10.9343 37.1767 10.972 37.134 11.0348C37.0913 11.0976 37.0759 11.1616 37.0997 11.1778C37.1236 11.194 37.1775 11.1562 37.2202 11.0935Z" fill="#FFEDB3"/>
<path d="M36.6323 11.1521C36.675 11.0893 36.6904 11.0253 36.6666 11.0091C36.6428 10.9929 36.5888 11.0306 36.5461 11.0934C36.5034 11.1561 36.488 11.2202 36.5119 11.2364C36.5357 11.2526 36.5896 11.2148 36.6323 11.1521Z" fill="#FFEDB3"/>
<path d="M36.0288 11.1794C36.0715 11.1166 36.0869 11.0526 36.063 11.0364C36.0392 11.0202 35.9853 11.058 35.9426 11.1207C35.8999 11.1835 35.8845 11.2475 35.9083 11.2637C35.9321 11.2799 35.9861 11.2422 36.0288 11.1794Z" fill="#FFEDB3"/>
<path d="M35.8296 11.8474C35.8723 11.7846 35.8876 11.7206 35.8638 11.7044C35.84 11.6882 35.7861 11.7259 35.7434 11.7887C35.7006 11.8515 35.6853 11.9155 35.7091 11.9317C35.7329 11.9479 35.7869 11.9101 35.8296 11.8474Z" fill="#FFEDB3"/>
<path d="M36.7026 10.5232C36.7453 10.4604 36.7607 10.3964 36.7369 10.3802C36.7131 10.364 36.6591 10.4017 36.6164 10.4645C36.5737 10.5272 36.5584 10.5913 36.5822 10.6075C36.606 10.6237 36.6599 10.5859 36.7026 10.5232Z" fill="#FFEDB3"/>
<g style="mix-blend-mode:multiply">
<path d="M22.0273 19.3705C22.0273 19.3705 24.3366 29.4426 27.1288 32.0411C29.1848 33.9542 31.5239 33.533 32.6149 33.1774C32.9799 33.0589 33.3117 32.8585 33.5873 32.5923L35.3386 30.9034C35.6643 30.5891 35.9122 30.2031 36.0564 29.7738C36.523 28.3875 37.1048 25.3137 33.9517 23.5753C29.7916 21.2822 26.755 18.549 26.755 18.549C26.755 18.549 24.7118 16.8614 22.4967 17.9632L22.028 19.3698L22.0273 19.3705Z" fill="#FF884D"/>
<path d="M20.7248 18.3281L20.7093 18.0308C20.7032 17.917 20.796 17.8236 20.9097 17.8283C21.2896 17.8432 21.8497 17.9211 22.4849 18.0254L22.0461 19.3155L20.9768 18.7866C20.8278 18.6802 20.735 18.5109 20.7248 18.3281Z" fill="#ED5E3B"/>
</g>
<path d="M22.2982 19.1595C22.2982 19.1595 25.003 29.1328 27.8954 31.6188C30.0252 33.4493 32.346 32.936 33.4221 32.5378C33.7817 32.4044 34.1054 32.1918 34.3709 31.9148L36.0537 30.1581C36.3673 29.831 36.5989 29.4355 36.7262 29.0014C37.1373 27.5982 37.5978 24.5034 34.3783 22.891C30.1308 20.7638 26.9886 18.1525 26.9886 18.1525C26.9886 18.1525 24.8804 16.5468 22.71 17.7347L22.2969 19.1588L22.2982 19.1595Z" fill="#FF884D"/>
<path d="M20.9564 18.1713L20.9286 17.8747C20.9178 17.7616 21.0072 17.6641 21.121 17.6641C21.5009 17.6641 22.0636 17.7196 22.7029 17.7988L22.3149 19.1052L21.2252 18.6189C21.0722 18.518 20.9726 18.3535 20.9557 18.1706L20.9564 18.1713Z" fill="#ED5E3B"/>
<g style="mix-blend-mode:multiply">
<path d="M31.0328 13.4716C31.1075 12.4777 30.4766 11.62 29.6237 11.5558C28.7707 11.4917 28.0186 12.2454 27.9439 13.2394C27.8692 14.2333 28.5001 15.0911 29.353 15.1552C30.206 15.2193 30.958 14.4656 31.0328 13.4716Z" fill="#CCF3E5"/>
</g>
<g style="mix-blend-mode:multiply">
<path d="M29.7422 16.8379C29.8098 15.9387 28.9887 15.1439 27.9082 15.0627C26.8278 14.9814 25.8971 15.6445 25.8295 16.5437C25.7618 17.4429 26.5829 18.2377 27.6634 18.319C28.7439 18.4002 29.6746 17.7371 29.7422 16.8379Z" fill="#CCF3E5"/>
</g>
<g style="mix-blend-mode:multiply">
<path d="M33.9527 13.0654C34.0274 12.0714 33.3965 11.2137 32.5436 11.1496C31.6906 11.0854 30.9386 11.8392 30.8638 12.8331C30.7891 13.8271 31.42 14.6848 32.2729 14.7489C33.1259 14.8131 33.8779 14.0593 33.9527 13.0654Z" fill="#CCF3E5"/>
</g>
<path d="M33.7515 13.2685C33.8262 12.2746 33.1954 11.4168 32.3424 11.3527C31.4894 11.2886 30.7374 12.0423 30.6627 13.0363C30.5879 14.0302 31.2188 14.8879 32.0718 14.9521C32.9247 15.0162 33.6768 14.2624 33.7515 13.2685Z" fill="#CCF3E5"/>
<g style="mix-blend-mode:multiply">
<path d="M31.6426 17.2537C31.7228 16.187 30.9927 15.2625 30.0118 15.1888C29.0309 15.115 28.1707 15.9199 28.0905 16.9866C28.0103 18.0533 28.7405 18.9778 29.7214 19.0515C30.7023 19.1253 31.5624 18.3204 31.6426 17.2537Z" fill="#A7DBC7"/>
</g>
<path d="M31.6407 16.8513C31.7209 15.7847 30.9907 14.8602 30.0099 14.7864C29.029 14.7127 28.1688 15.5176 28.0886 16.5843C28.0084 17.6509 28.7385 18.5754 29.7194 18.6492C30.7003 18.7229 31.5605 17.918 31.6407 16.8513Z" fill="#A7DBC7"/>
<path d="M38.0782 18.156C38.1584 17.0894 37.4282 16.1649 36.4474 16.0911C35.4665 16.0174 34.6063 16.8223 34.5261 17.8889C34.4459 18.9556 35.176 19.8801 36.1569 19.9539C37.1378 20.0276 37.998 19.2227 38.0782 18.156Z" fill="#A7DBC7"/>
<path d="M29.541 16.4356C29.6086 15.5364 28.7875 14.7416 27.7071 14.6603C26.6266 14.5791 25.6959 15.2422 25.6283 16.1414C25.5607 17.0406 26.3818 17.8354 27.4622 17.9166C28.5427 17.9979 29.4734 17.3348 29.541 16.4356Z" fill="#CCF3E5"/>
<path d="M34.6831 19.5697C34.7601 18.5459 34.0388 17.657 33.0721 17.5843C32.1054 17.5117 31.2593 18.2827 31.1824 19.3064C31.1054 20.3302 31.8266 21.2191 32.7934 21.2918C33.7601 21.3645 34.6062 20.5934 34.6831 19.5697Z" fill="#A7DBC7"/>
<path d="M34.6734 16.7025C34.7503 15.6787 34.0291 14.7898 33.0624 14.7172C32.0956 14.6445 31.2496 15.4155 31.1726 16.4393C31.0956 17.463 31.8169 18.3519 32.7836 18.4246C33.7503 18.4973 34.5964 17.7263 34.6734 16.7025Z" fill="#A7DBC7"/>
<g style="mix-blend-mode:multiply">
<path d="M37.9836 21.518C38.0552 20.5655 37.3441 19.7354 36.3953 19.6641C35.4465 19.5928 34.6193 20.3071 34.5477 21.2596C34.476 22.2122 35.1871 23.0422 36.1359 23.1136C37.0848 23.1849 37.912 22.4705 37.9836 21.518Z" fill="#A7DBC7"/>
</g>
<path d="M37.8645 21.1977C37.9361 20.2451 37.225 19.4151 36.2762 19.3438C35.3274 19.2724 34.5001 19.9868 34.4285 20.9393C34.3569 21.8919 35.068 22.7219 36.0168 22.7932C36.9656 22.8646 37.7928 22.1502 37.8645 21.1977Z" fill="#A7DBC7"/>
<path d="M37.6906 16.0649C37.7623 15.1123 37.0512 14.2823 36.1023 14.211C35.1535 14.1396 34.3263 14.854 34.2547 15.8065C34.1831 16.7591 34.8942 17.5891 35.843 17.6604C36.7918 17.7318 37.619 17.0174 37.6906 16.0649Z" fill="#A7DBC7"/>
<path d="M31.8397 17.3645C32.863 16.9961 33.4577 16.045 33.1679 15.2402C32.8782 14.4354 31.8137 14.0817 30.7904 14.4501C29.7671 14.8185 29.1724 15.7696 29.4621 16.5744C29.7519 17.3792 30.8163 17.733 31.8397 17.3645Z" fill="#CCF3E5"/>
<g style="mix-blend-mode:multiply">
<path d="M36.5988 14.2972C37.143 13.3547 36.8723 12.1796 35.9942 11.6726C35.1161 11.1656 33.9631 11.5187 33.4189 12.4613C32.8747 13.4039 33.1454 14.579 34.0235 15.0859C34.9017 15.5929 36.0546 15.2398 36.5988 14.2972Z" fill="#CCF3E5"/>
</g>
<path d="M36.2668 14.3793C36.811 13.4367 36.5403 12.2616 35.6622 11.7546C34.7841 11.2477 33.6311 11.6008 33.0869 12.5433C32.5427 13.4859 32.8134 14.661 33.6915 15.168C34.5696 15.6749 35.7226 15.3218 36.2668 14.3793Z" fill="#CCF3E5"/>
<g style="mix-blend-mode:multiply">
<path d="M32.9329 19.7891C33.0131 18.7224 32.3404 17.8022 31.4304 17.7338C30.5203 17.6654 29.7176 18.4746 29.6374 19.5413C29.5572 20.6079 30.2299 21.5281 31.1399 21.5966C32.05 21.665 32.8527 20.8557 32.9329 19.7891Z" fill="#CCF3E5"/>
</g>
<path d="M32.7317 19.586C32.8119 18.5193 32.1392 17.5991 31.2292 17.5307C30.3192 17.4623 29.5164 18.2715 29.4362 19.3382C29.356 20.4048 30.0287 21.325 30.9388 21.3934C31.8488 21.4619 32.6515 20.6526 32.7317 19.586Z" fill="#CCF3E5"/>
<path d="M39.1263 15.7149C39.2065 14.6482 38.5338 13.728 37.6237 13.6596C36.7137 13.5912 35.911 14.4004 35.8308 15.4671C35.7506 16.5337 36.4233 17.4539 37.3333 17.5223C38.2433 17.5908 39.046 16.7815 39.1263 15.7149Z" fill="#CCF3E5"/>
<g style="mix-blend-mode:multiply">
<path d="M35.0512 23.0481C35.1155 22.1936 34.3724 21.4412 33.3915 21.3674C32.4106 21.2937 31.5634 21.9265 31.4991 22.781C31.4349 23.6355 32.178 24.3879 33.1589 24.4617C34.1397 24.5354 34.987 23.9025 35.0512 23.0481Z" fill="#CCF3E5"/>
</g>
<path d="M34.9419 22.5715C35.0061 21.7171 34.263 20.9646 33.2821 20.8909C32.3013 20.8171 31.454 21.45 31.3898 22.3044C31.3255 23.1589 32.0686 23.9114 33.0495 23.9851C34.0304 24.0589 34.8776 23.426 34.9419 22.5715Z" fill="#CCF3E5"/>
<path d="M35.9262 20.009C35.9905 19.1546 35.2474 18.4021 34.2665 18.3284C33.2856 18.2546 32.4384 18.8875 32.3741 19.7419C32.3099 20.5964 33.053 21.3489 34.0339 21.4226C35.0147 21.4964 35.862 20.8635 35.9262 20.009Z" fill="#CCF3E5"/>
<path d="M30.6285 13.4716C30.7032 12.4777 30.0723 11.62 29.2194 11.5558C28.3664 11.4917 27.6144 12.2454 27.5396 13.2394C27.4649 14.2333 28.0958 15.0911 28.9487 15.1552C29.8017 15.2193 30.5537 14.4656 30.6285 13.4716Z" fill="#CCF3E5"/>
<path d="M35.9667 18.0723C36.462 17.3188 36.1296 16.2254 35.2242 15.6302C34.3188 15.035 33.1833 15.1634 32.6879 15.9169C32.1926 16.6704 32.525 17.7637 33.4304 18.3589C34.3358 18.9541 35.4713 18.8258 35.9667 18.0723Z" fill="#CCF3E5"/>
<path d="M38.2608 21.2049C39.0678 20.8025 39.3301 19.6902 38.8466 18.7206C38.3632 17.7509 37.317 17.291 36.51 17.6933C35.703 18.0957 35.4408 19.208 35.9242 20.1776C36.4077 21.1473 37.4538 21.6072 38.2608 21.2049Z" fill="#CCF3E5"/>
<g style="mix-blend-mode:multiply" opacity="0.5">
<path d="M29.418 34.6118C29.418 34.6118 25.2207 38.8092 19.6878 38.1604L18.9246 36.7871L18.584 36.781L19.2294 30.6055L28.9595 33.6583L29.4173 34.6125L29.418 34.6118Z" fill="#0C513F"/>
</g>
<g style="mix-blend-mode:multiply" opacity="0.5">
<path d="M7.58008 33.1237C7.58008 33.1237 10.7027 38.3789 17.7477 38.303L18.5854 36.78L19.8037 25.6602L17.6333 25.5078L7.58008 33.1244V33.1237Z" fill="#0C513F"/>
</g>
<path d="M18.571 33.136L18.4301 36.0534L18.422 36.0717C13.5055 36.3791 8.20898 31.2797 8.20898 31.2797L10.4817 29.3477C11.0133 29.9565 14.4021 33.6209 18.5703 33.1367L18.571 33.136Z" fill="#FFEDB3"/>
<path d="M18.4222 36.0693L17.5425 37.7637C17.5425 37.7637 13.9444 38.9176 8.20508 33.3225L8.20914 31.2773C8.20914 31.2773 13.5049 36.3774 18.4222 36.0693Z" fill="#0C513F"/>
<path d="M18.9266 25.7031L18.571 33.1362C14.4028 33.6211 11.014 29.956 10.4824 29.3472L16.5895 24.1523C16.7757 23.9952 17.0439 23.9796 17.2457 24.1171L18.5907 25.03C18.8121 25.1797 18.9415 25.4343 18.9266 25.7031Z" fill="#ED5E3B"/>
<path d="M18.4159 26.7223C18.4708 26.6881 18.4349 26.5311 18.3356 26.3718C18.2364 26.2124 18.1114 26.1109 18.0565 26.1451C18.0016 26.1793 18.0375 26.3362 18.1367 26.4956C18.236 26.655 18.361 26.7565 18.4159 26.7223Z" fill="#231F20"/>
<path d="M17.5315 27.0374C17.5961 27.0346 17.6419 26.8803 17.6337 26.6927C17.6255 26.5051 17.5665 26.3553 17.5018 26.3582C17.4372 26.361 17.3914 26.5153 17.3996 26.7029C17.4078 26.8905 17.4668 27.0403 17.5315 27.0374Z" fill="#231F20"/>
<path d="M16.7988 26.5237C16.9318 26.3912 17.0026 26.2466 16.957 26.2008C16.9113 26.155 16.7664 26.2252 16.6334 26.3577C16.5004 26.4902 16.4296 26.6348 16.4753 26.6807C16.5209 26.7265 16.6658 26.6562 16.7988 26.5237Z" fill="#231F20"/>
<path d="M16.3199 26.0337C16.5027 25.991 16.639 25.9053 16.6243 25.8423C16.6096 25.7793 16.4494 25.7628 16.2666 25.8055C16.0838 25.8482 15.9475 25.9339 15.9622 25.9969C15.9769 26.0599 16.137 26.0764 16.3199 26.0337Z" fill="#231F20"/>
<path d="M16.5988 25.288C16.6137 25.225 16.4775 25.1391 16.2948 25.096C16.112 25.0529 15.9519 25.0691 15.937 25.1321C15.9222 25.195 16.0583 25.281 16.2411 25.3241C16.4238 25.3671 16.584 25.351 16.5988 25.288Z" fill="#231F20"/>
<path d="M29.3978 31.9186L29.2718 33.9591C23.185 39.1783 19.6696 37.7982 19.6696 37.7982L18.9023 36.0496C23.7905 36.6672 29.3978 31.918 29.3978 31.918V31.9186Z" fill="#0C513F"/>
<path d="M29.3968 31.9214C29.3968 31.9214 23.7895 36.6707 18.9014 36.0531L18.8926 36.0348L18.944 32.835C23.6391 33.5684 26.6446 30.1911 27.0726 29.6758L29.3975 31.9214H29.3968Z" fill="#FFEDB3"/>
<path d="M27.0719 29.6747C26.6439 30.19 23.6385 33.5673 18.9434 32.8339L19.0558 25.6717C19.0592 25.4028 19.2027 25.157 19.4337 25.0223L20.8335 24.1967C21.0447 24.0721 21.3116 24.104 21.4856 24.2739L27.0719 29.6754V29.6747Z" fill="#ED5E3B"/>
<path d="M22.1588 25.5518C22.1615 25.4872 22.0116 25.4284 21.824 25.4206C21.6364 25.4128 21.4822 25.4589 21.4795 25.5236C21.4768 25.5882 21.6267 25.6469 21.8143 25.6547C22.0019 25.6625 22.1561 25.6165 22.1588 25.5518Z" fill="#231F20"/>
<path d="M21.9228 26.4617C21.9569 26.4067 21.8552 26.282 21.6956 26.1831C21.536 26.0841 21.379 26.0485 21.3449 26.1035C21.3108 26.1585 21.4126 26.2833 21.5722 26.3822C21.7318 26.4811 21.8888 26.5167 21.9228 26.4617Z" fill="#231F20"/>
<path d="M21.0352 27.135C21.0988 27.1231 21.1223 26.9639 21.0878 26.7793C21.0532 26.5948 20.9737 26.4548 20.9101 26.4667C20.8465 26.4786 20.8229 26.6379 20.8575 26.8224C20.892 27.007 20.9716 27.1469 21.0352 27.135Z" fill="#231F20"/>
<path d="M20.4115 26.8964C20.4792 26.7213 20.4852 26.5604 20.4249 26.5371C20.3646 26.5137 20.2607 26.6367 20.193 26.8118C20.1252 26.987 20.1192 27.1478 20.1796 27.1712C20.2399 27.1945 20.3438 27.0715 20.4115 26.8964Z" fill="#231F20"/>
<path d="M19.784 26.5645C19.9225 26.4378 19.9994 26.2964 19.9558 26.2486C19.9121 26.2009 19.7644 26.2649 19.6258 26.3916C19.4873 26.5184 19.4104 26.6598 19.4541 26.7075C19.4977 26.7553 19.6455 26.6913 19.784 26.5645Z" fill="#231F20"/>
</svg>
